# xmcd CD database file
#
# Track frame offsets:
#	150
#	12517
#	28697
#	44075
#	65572
#	85170
#	99840
#	112827
#	127455
#
# Disc length: 2134 seconds
#
# Revision: 0
# Processed by: cddbd v1.5.2PL0 Copyright (c) Steve Scherf et al.
# Submitted via: CDex 1.70beta2
#
DISCID=78085409
DTITLE=Tracey Levett - Perfect Dream
DYEAR=1900
DGENRE=Jazz
TTITLE0=Ode to luke
TTITLE1=Youre not there
TTITLE2=Last time
TTITLE3=Not for sale
TTITLE4=Comfort zone
TTITLE5=Empty sky
TTITLE6=Since you went away
TTITLE7=Like you do
TTITLE8=Many hearts, mant hands
EXTD=
EXTT0=
EXTT1=
EXTT2=
EXTT3=
EXTT4=
EXTT5=
EXTT6=
EXTT7=
EXTT8=
PLAYORDER=
